<mxfile host="www.draw.io" modified="2019-10-29T11:50:38.440Z" agent="Mozilla/5.0 (Windows NT 10.0; Win64; x64) AppleWebKit/537.36 (KHTML, like Gecko) Chrome/76.0.3809.132 Safari/537.36" etag="chFzbhLEyCRom_7Ga0yX" version="12.1.8" type="github" pages="1">
  <diagram id="II0ChCyQQVR6j2OQ3_4N" name="Page-1">
    <mxGraphModel dx="848" dy="743" grid="1" gridSize="10" guides="1" tooltips="1" connect="1" arrows="1" fold="1" page="1" pageScale="1" pageWidth="850" pageHeight="1100" math="0" shadow="0">
      <root>
        <mxCell id="0"/>
        <mxCell id="1" parent="0"/>
        <mxCell id="wxVvvd7lMRNQkClMGqqZ-9" style="edgeStyle=orthogonalEdgeStyle;rounded=0;orthogonalLoop=1;jettySize=auto;html=1;entryX=0;entryY=0;entryDx=65;entryDy=310;entryPerimeter=0;" edge="1" parent="1" source="wxVvvd7lMRNQkClMGqqZ-1" target="wxVvvd7lMRNQkClMGqqZ-4">
          <mxGeometry relative="1" as="geometry"/>
        </mxCell>
        <mxCell id="wxVvvd7lMRNQkClMGqqZ-1" value="Vodafone Datacenter" style="verticalAlign=top;align=left;spacingTop=8;spacingLeft=2;spacingRight=12;shape=cube;size=10;direction=south;fontStyle=4;html=1;fillColor=#f5f5f5;strokeColor=#666666;fontColor=#333333;" vertex="1" parent="1">
          <mxGeometry x="80" y="160" width="320" height="230" as="geometry"/>
        </mxCell>
        <mxCell id="wxVvvd7lMRNQkClMGqqZ-10" style="edgeStyle=orthogonalEdgeStyle;rounded=0;orthogonalLoop=1;jettySize=auto;html=1;" edge="1" parent="1" source="wxVvvd7lMRNQkClMGqqZ-4" target="wxVvvd7lMRNQkClMGqqZ-5">
          <mxGeometry relative="1" as="geometry"/>
        </mxCell>
        <mxCell id="wxVvvd7lMRNQkClMGqqZ-4" value="Transit VPC" style="verticalAlign=top;align=left;spacingTop=8;spacingLeft=2;spacingRight=12;shape=cube;size=10;direction=south;fontStyle=4;html=1;fillColor=#ffe6cc;strokeColor=#d79b00;" vertex="1" parent="1">
          <mxGeometry x="460" y="210" width="310" height="120" as="geometry"/>
        </mxCell>
        <mxCell id="wxVvvd7lMRNQkClMGqqZ-5" value="MSA VPC" style="verticalAlign=top;align=left;spacingTop=8;spacingLeft=2;spacingRight=12;shape=cube;size=10;direction=south;fontStyle=4;html=1;fillColor=#d5e8d4;strokeColor=#82b366;" vertex="1" parent="1">
          <mxGeometry x="390" y="380" width="450" height="540" as="geometry"/>
        </mxCell>
        <mxCell id="wxVvvd7lMRNQkClMGqqZ-6" value="NFS EFS&#xa;Volume" style="shape=component;align=left;spacingLeft=36;" vertex="1" parent="1">
          <mxGeometry x="420" y="608.5" width="120" height="60" as="geometry"/>
        </mxCell>
        <mxCell id="wxVvvd7lMRNQkClMGqqZ-7" value="MoveIt" style="shape=folder;fontStyle=1;spacingTop=10;tabWidth=40;tabHeight=14;tabPosition=left;html=1;align=left;verticalAlign=top;" vertex="1" parent="1">
          <mxGeometry x="140" y="205" width="200" height="130" as="geometry"/>
        </mxCell>
        <mxCell id="wxVvvd7lMRNQkClMGqqZ-3" value="Mount Point" style="shape=component;align=left;spacingLeft=36;" vertex="1" parent="1">
          <mxGeometry x="200" y="265" width="120" height="60" as="geometry"/>
        </mxCell>
        <mxCell id="wxVvvd7lMRNQkClMGqqZ-8" value="Use" style="endArrow=open;endSize=12;dashed=1;html=1;exitX=1;exitY=0.5;exitDx=0;exitDy=0;entryX=0;entryY=0.3;entryDx=0;entryDy=0;" edge="1" parent="1" source="wxVvvd7lMRNQkClMGqqZ-3" target="wxVvvd7lMRNQkClMGqqZ-6">
          <mxGeometry width="160" relative="1" as="geometry">
            <mxPoint x="200" y="550" as="sourcePoint"/>
            <mxPoint x="360" y="550" as="targetPoint"/>
          </mxGeometry>
        </mxCell>
        <mxCell id="wxVvvd7lMRNQkClMGqqZ-11" value="Kubernetes Cluster" style="shape=folder;fontStyle=1;spacingTop=10;tabWidth=40;tabHeight=14;tabPosition=left;html=1;align=left;verticalAlign=top;" vertex="1" parent="1">
          <mxGeometry x="560" y="510" width="240" height="300" as="geometry"/>
        </mxCell>
        <mxCell id="wxVvvd7lMRNQkClMGqqZ-14" value="member-upload" style="shape=folder;fontStyle=1;spacingTop=10;tabWidth=40;tabHeight=14;tabPosition=left;html=1;align=left;verticalAlign=top;" vertex="1" parent="1">
          <mxGeometry x="580" y="560" width="200" height="220" as="geometry"/>
        </mxCell>
        <mxCell id="wxVvvd7lMRNQkClMGqqZ-13" value="PV&#xa;Mount Point" style="shape=component;align=center;spacingLeft=36;" vertex="1" parent="1">
          <mxGeometry x="610" y="710" width="120" height="60" as="geometry"/>
        </mxCell>
        <mxCell id="wxVvvd7lMRNQkClMGqqZ-15" value="Use" style="endArrow=open;endSize=12;dashed=1;html=1;exitX=0;exitY=0.3;exitDx=0;exitDy=0;entryX=1;entryY=0.625;entryDx=0;entryDy=0;entryPerimeter=0;" edge="1" parent="1" source="wxVvvd7lMRNQkClMGqqZ-13" target="wxVvvd7lMRNQkClMGqqZ-6">
          <mxGeometry width="160" relative="1" as="geometry">
            <mxPoint x="540" y="640" as="sourcePoint"/>
            <mxPoint x="700" y="640" as="targetPoint"/>
          </mxGeometry>
        </mxCell>
        <mxCell id="wxVvvd7lMRNQkClMGqqZ-17" style="edgeStyle=orthogonalEdgeStyle;rounded=0;orthogonalLoop=1;jettySize=auto;html=1;" edge="1" parent="1" source="wxVvvd7lMRNQkClMGqqZ-16" target="wxVvvd7lMRNQkClMGqqZ-13">
          <mxGeometry relative="1" as="geometry"/>
        </mxCell>
        <mxCell id="wxVvvd7lMRNQkClMGqqZ-16" value="Process" style="shape=component;align=left;spacingLeft=36;" vertex="1" parent="1">
          <mxGeometry x="610" y="608.5" width="120" height="60" as="geometry"/>
        </mxCell>
      </root>
    </mxGraphModel>
  </diagram>
</mxfile>
